<svg width="50" height="50" viewBox="0 0 50 50" fill="none" xmlns="http://www.w3.org/2000/svg">
<g clip-path="url(#clip0_1745_343)">
<path d="M6.30566 20.3456C8.5575 24.6444 11.9963 27.3139 15.2937 28.9689C20.5633 31.6139 26.2348 31.9477 31.5942 29.9737L31.6917 29.9381" stroke="white" stroke-width="1.5" stroke-miterlimit="10" stroke-linecap="round" stroke-linejoin="round"/>
<path d="M34.7168 28.5413C37.7488 26.8656 40.8192 24.296 42.887 20.3624" stroke="white" stroke-width="1.5" stroke-miterlimit="10" stroke-linecap="round" stroke-linejoin="round"/>
<path d="M0.799805 19.6666C1.62269 20.6555 2.45162 21.6372 3.28247 22.6168C7.45141 27.5325 11.5063 32.3678 16.9394 35.2989C22.1575 38.1142 27.1703 38.1213 32.4021 35.2988C37.8351 32.3678 41.89 27.5325 46.0589 22.6168C46.8898 21.6372 47.7187 20.6555 48.5416 19.6666" stroke="white" stroke-width="1.5" stroke-miterlimit="10" stroke-linecap="round" stroke-linejoin="round"/>
<path d="M19.9766 21.3236V24.5175C19.9766 25.024 20.3871 25.4347 20.8937 25.4347H23.7329C24.2394 25.4347 24.6501 25.024 24.6501 24.5175V21.4176" stroke="white" stroke-width="1.5" stroke-miterlimit="10" stroke-linecap="round" stroke-linejoin="round"/>
<path d="M24.6582 21.4176V24.5175C24.6582 25.0241 25.0689 25.4347 25.5754 25.4347H28.4146C28.9211 25.4347 29.3317 25.0241 29.3317 24.5175V21.3236" stroke="white" stroke-width="1.5" stroke-miterlimit="10" stroke-linecap="round" stroke-linejoin="round"/>
<path d="M29.3643 21.3236V24.644C29.3643 25.0806 29.7183 25.4347 30.1549 25.4347H32.6022C33.0388 25.4347 33.3927 25.0806 33.3927 24.644V21.1375" stroke="white" stroke-width="1.5" stroke-miterlimit="10" stroke-linecap="round" stroke-linejoin="round"/>
<path d="M33.3926 21.1387V23.3004C33.3926 23.7135 33.7275 24.0484 34.1406 24.0484H36.4561C36.8692 24.0484 37.2041 23.7135 37.2041 23.3004V20.8821" stroke="white" stroke-width="1.5" stroke-miterlimit="10" stroke-linecap="round" stroke-linejoin="round"/>
<path d="M19.9777 21.3236V24.644C19.9777 25.0806 19.6237 25.4347 19.1871 25.4347H16.7397C16.3031 25.4347 15.9492 25.0806 15.9492 24.644V21.1375" stroke="white" stroke-width="1.5" stroke-miterlimit="10" stroke-linecap="round" stroke-linejoin="round"/>
<path d="M15.9483 21.1388V23.3004C15.9483 23.7135 15.6134 24.0484 15.2003 24.0484H12.8848C12.4716 24.0484 12.1367 23.7135 12.1367 23.3004V20.8821" stroke="white" stroke-width="1.5" stroke-miterlimit="10" stroke-linecap="round" stroke-linejoin="round"/>
<path d="M15.9057 12.1043C18.8936 11.013 21.9461 10.8162 24.6704 13.187C29.9906 8.55712 36.562 13.7195 41.4603 16.2124C43.8004 17.4034 46.1809 18.5036 48.5314 19.6715C48.5314 19.6715 37.2059 21.3599 24.6804 21.4179V21.4181C24.6771 21.4181 24.6738 21.418 24.6704 21.418C24.6672 21.418 24.6638 21.4181 24.6604 21.4181V21.4179C12.1349 21.3599 0.80957 19.6715 0.80957 19.6715C3.16001 18.5036 5.54041 17.4034 7.88048 16.2124C9.37655 15.451 11.0287 14.4407 12.7535 13.5363L12.8994 13.4601" stroke="white" stroke-width="1.5" stroke-miterlimit="10" stroke-linecap="round" stroke-linejoin="round"/>
<path d="M40.4025 35.5697C40.091 36.2303 39.1889 37.8433 37.5992 38.392C37.476 38.4346 37.476 38.6098 37.5992 38.6523C39.1889 39.201 40.091 40.814 40.4025 41.4745C40.4523 41.5802 40.6028 41.5802 40.6526 41.4745C40.9641 40.814 41.8662 39.201 43.4559 38.6523C43.5791 38.6098 43.5791 38.4346 43.4559 38.392C41.8662 37.8433 40.9641 36.2303 40.6526 35.5697C40.6028 35.4641 40.4523 35.4641 40.4025 35.5697Z" stroke="white" stroke-width="1.5" stroke-miterlimit="10" stroke-linecap="round" stroke-linejoin="round"/>
<path d="M9.7813 2.51182C9.35229 3.4216 8.1098 5.64328 5.92029 6.39895C5.75053 6.45752 5.75053 6.69891 5.92029 6.75748C8.1098 7.51315 9.35229 9.73493 9.7813 10.6446C9.84995 10.7902 10.0572 10.7902 10.1258 10.6446C10.5548 9.73493 11.7973 7.51315 13.9868 6.75748C14.1565 6.69891 14.1565 6.45752 13.9868 6.39895C11.7973 5.64328 10.5548 3.4216 10.1258 2.51182C10.0572 2.36626 9.84995 2.36626 9.7813 2.51182Z" stroke="white" stroke-width="1.5" stroke-miterlimit="10" stroke-linecap="round" stroke-linejoin="round"/>
<path d="M33.3155 39.9193C32.8865 40.8291 31.644 43.0508 29.4545 43.8064C29.2847 43.865 29.2847 44.1064 29.4545 44.165C31.644 44.9206 32.8865 47.1424 33.3155 48.0521C33.384 48.1976 33.5913 48.1976 33.66 48.0521C34.089 47.1424 35.3315 44.9206 37.521 44.165C37.6907 44.1064 37.6907 43.865 37.521 43.8064C35.3315 43.0508 34.089 40.8291 33.66 39.9193C33.5913 39.7737 33.384 39.7737 33.3155 39.9193Z" stroke="white" stroke-width="1.5" stroke-miterlimit="10" stroke-linecap="round" stroke-linejoin="round"/>
</g>
<defs>
<clipPath id="clip0_1745_343">
<rect width="49.1616" height="49.1616" fill="white" transform="translate(0.0898438 0.701843)"/>
</clipPath>
</defs>
</svg>
