<svg width="50" height="50" viewBox="0 0 50 50" fill="none" xmlns="http://www.w3.org/2000/svg">
<g clip-path="url(#clip0_1745_383)">
<path d="M41.6755 5.87338C41.4921 5.52043 41.057 5.38278 40.7044 5.56619C40.3515 5.7496 40.2138 6.18431 40.3972 6.53725C41.3368 8.34585 41.5341 10.4245 40.9527 12.3899C40.7209 13.1753 38.6847 20.0721 38.5958 20.4145C38.5781 20.4828 38.517 20.5308 38.4476 20.5308H21.4531C21.0552 20.5308 20.733 20.853 20.733 21.2509C20.733 21.6485 21.0552 21.9711 21.4531 21.9711H36.2624L35.8622 24.1716C35.8487 24.2444 35.7857 24.2969 35.7118 24.2969H14.9621C14.8882 24.2969 14.8252 24.2444 14.8121 24.1716L14.4115 21.9711H18.3171C18.7147 21.9711 19.0373 21.6485 19.0373 21.2509C19.0373 20.853 18.7147 20.5308 18.3171 20.5308H12.2263C12.157 20.5308 12.0958 20.4832 12.0782 20.4149C12.0763 20.4074 12.0741 20.3999 12.0722 20.3924L9.72125 12.3899C9.00973 9.98341 9.46282 7.45055 10.9646 5.44017C12.4664 3.43016 14.7667 2.27719 17.2759 2.27719C18.0227 2.27719 18.7612 2.38146 19.4712 2.587C23.3086 3.69834 27.3657 3.69834 31.2027 2.587C31.9127 2.38146 32.6513 2.27719 33.398 2.27719C35.3285 2.27719 37.181 2.97782 38.6149 4.25007C38.9123 4.51412 39.3677 4.48711 39.6317 4.18968C39.8958 3.89187 39.8684 3.43691 39.571 3.17286C37.8734 1.66657 35.6811 0.836914 33.398 0.836914C32.5159 0.836914 31.6423 0.960313 30.8022 1.20336C27.227 2.23893 23.447 2.23893 19.8718 1.20336C19.0317 0.960313 18.1581 0.836914 17.2759 0.836914C14.308 0.836914 11.5869 2.20067 9.81051 4.57825C8.03417 6.95583 7.4982 9.95191 8.33986 12.7968L10.6874 20.7889C10.8738 21.4857 11.5051 21.9711 12.2263 21.9711H12.9476L13.3951 24.4293C13.5327 25.1873 14.1921 25.7372 14.9621 25.7372H18.1003L18.6089 30.118L18.1015 30.2538C17.5764 30.3944 17.1375 30.7313 16.866 31.202C16.5941 31.6727 16.522 32.221 16.6627 32.7458C16.9061 33.6538 17.7302 34.2539 18.6284 34.2539C18.7789 34.2539 18.9315 34.2359 19.0838 34.201L19.3426 36.4293L18.6562 36.6135C17.5726 36.9038 16.9271 38.0215 17.2174 39.1055C17.4609 40.0132 18.2849 40.6136 19.1832 40.6136C19.3572 40.6136 19.5335 40.5911 19.7094 40.5439L19.8171 40.515L20.0759 42.7411L19.4881 42.8986C18.963 43.0392 18.5246 43.376 18.2526 43.8468C17.9811 44.3175 17.9091 44.8655 18.0497 45.3906C18.19 45.9153 18.5268 46.3541 18.9975 46.626C19.3111 46.8068 19.6588 46.8995 20.0113 46.8995C20.188 46.8995 20.3662 46.8762 20.5413 46.8293L20.5507 46.8267L20.7469 48.5149C20.8447 49.3607 21.5611 49.9987 22.4129 49.9987H28.2614C29.1128 49.9987 29.8292 49.3607 29.9275 48.5149L30.4312 44.1795L31.1862 43.9769C32.2694 43.6866 32.9149 42.5689 32.6246 41.4853C32.4048 40.6654 31.7113 40.0972 30.9173 39.9944L31.2117 37.4619L32.0181 37.2459C33.1013 36.9559 33.7468 35.8379 33.4565 34.7543C33.2322 33.9171 32.5147 33.3421 31.7001 33.2574L31.9923 30.7448L32.5725 30.5895C33.6564 30.2988 34.3016 29.1811 34.0113 28.0975C33.8069 27.335 33.1929 26.7904 32.4693 26.6351L32.574 25.7376H35.7118C36.4822 25.7376 37.1412 25.1873 37.2793 24.4297L37.7267 21.9711H38.4476C39.1734 21.9711 39.8076 21.4797 39.9899 20.7765C40.0533 20.5319 41.4264 15.8713 42.3341 12.7983C43.0212 10.474 42.7876 8.01466 41.6755 5.87338V5.87338ZM28.4966 48.3484C28.4827 48.468 28.3814 48.558 28.2614 48.558H22.4125C22.2925 48.558 22.1913 48.468 22.1774 48.3484L21.9568 46.4498L28.9347 44.58L28.4966 48.3484ZM31.2331 41.8578C31.3183 42.1743 31.1296 42.5006 30.813 42.5858L20.1685 45.4378C20.0151 45.4791 19.8549 45.4577 19.7177 45.3786C19.58 45.299 19.4817 45.1711 19.4409 45.0177C19.3996 44.8643 19.4206 44.7042 19.5001 44.5669C19.5796 44.4292 19.7075 44.331 19.8609 44.2897L30.5055 41.4377C30.5569 41.4238 30.6082 41.4174 30.6592 41.4174C30.9214 41.417 31.1622 41.5926 31.2331 41.8578V41.8578ZM29.4395 40.2322L21.482 42.3645L21.2236 40.1381L29.7148 37.8629L29.4395 40.2322ZM32.0654 35.1267C32.1502 35.4433 31.9615 35.77 31.6449 35.8547L19.3366 39.1527C19.02 39.2379 18.6933 39.0492 18.6086 38.7327C18.5238 38.4161 18.7125 38.0898 19.029 38.0046L31.3374 34.7066C31.3888 34.6928 31.4405 34.6864 31.4912 34.6864C31.7537 34.6864 31.9945 34.8615 32.0654 35.1267V35.1267ZM32.6201 28.4699C32.7049 28.7865 32.5162 29.1132 32.1997 29.198L27.7993 30.3772C27.4153 30.48 27.1872 30.8749 27.2904 31.259C27.3931 31.6431 27.7877 31.8711 28.1721 31.7683L30.4953 31.1457L30.22 33.515L20.7487 36.0528L20.4903 33.8267L25.1404 32.5807C25.5249 32.4776 25.7526 32.0826 25.6498 31.6986C25.547 31.3145 25.1521 31.0864 24.7676 31.1892L18.7819 32.7934C18.4653 32.8782 18.139 32.6895 18.0538 32.3729C18.013 32.2199 18.034 32.0598 18.1135 31.9221C18.1926 31.7848 18.3209 31.6862 18.4743 31.6453L31.8921 28.0499C32.2087 27.9647 32.5354 28.1538 32.6201 28.4699V28.4699ZM31.0006 26.7975L20.0155 29.7411L19.5504 25.7372H31.124L31.0006 26.7975Z" fill="white"/>
<path d="M30.8021 5.04409C27.2269 6.07966 23.4469 6.07966 19.8717 5.04409C19.4899 4.93382 19.0901 5.15361 18.9798 5.53581C18.8692 5.91763 19.0889 6.31708 19.4711 6.42773C21.3896 6.98359 23.3633 7.26152 25.3369 7.26152C27.3105 7.26152 29.2841 6.98359 31.2026 6.42773C31.5848 6.31708 31.805 5.91763 31.6944 5.53581C31.5837 5.15361 31.1839 4.93382 30.8021 5.04409Z" fill="white"/>
</g>
<defs>
<clipPath id="clip0_1745_383">
<rect width="49.1616" height="49.1616" fill="white" transform="translate(0.749023 0.836914)"/>
</clipPath>
</defs>
</svg>
