<svg width="49" height="48" viewBox="0 0 49 48" fill="none" xmlns="http://www.w3.org/2000/svg">
<path d="M46.8099 28.9206C46.3383 28.6433 45.7998 28.4966 45.2537 28.4966C44.1706 28.4966 43.1558 29.0765 42.6043 30.0114L41.2163 32.3711C40.8429 30.8886 39.9527 29.6119 38.6714 28.7585C38.4916 28.6387 38.3011 28.5411 38.1114 28.442C39.6293 27.4911 40.644 25.808 40.644 23.8877C40.644 21.1623 38.6038 18.9093 35.9713 18.5621C37.5015 16.568 38.3395 14.1567 38.3395 11.5973C38.3395 5.24389 33.1707 0.0750122 26.8173 0.0750122C20.4639 0.0750122 15.295 5.24389 15.295 11.5973C15.295 12.191 15.3457 12.7841 15.4379 13.3725C14.9033 13.2204 14.3418 13.1336 13.7587 13.1336C10.3704 13.1336 7.61354 15.8905 7.61354 19.2788C7.61354 21.4549 8.75348 23.3653 10.4641 24.4576C6.57424 25.8234 3.77279 29.5228 3.77279 33.8736V40.0188C3.77279 40.5811 3.93564 41.1011 4.19989 41.5551H3.77279C2.07826 41.5551 0.700195 42.9332 0.700195 44.6277C0.700195 46.3222 2.07826 47.7003 3.77279 47.7003H33.6177C37.1412 47.7003 40.4389 45.8137 42.2256 42.7772L47.903 33.1247C48.7595 31.6636 48.2694 29.7771 46.8099 28.9206ZM39.7844 32.9703C39.8981 33.5364 39.9058 34.1087 39.8029 34.7017L39.7906 34.7946L36.9277 39.6616C36.2417 40.83 34.972 41.5551 33.6177 41.5551H26.8173C26.182 41.5551 25.6651 41.0381 25.6651 40.4029C25.6651 39.7676 26.182 39.2507 26.8173 39.2507H32.6437C33.5824 39.2507 34.465 38.7506 34.9489 37.9456L36.6934 35.0374L35.376 34.2469L33.6315 37.1551C33.4249 37.5 33.0455 37.7144 32.6437 37.7144H27.166L31.4308 31.3164C32.2842 30.0321 33.7176 29.2647 35.2646 29.2647C36.1764 29.2647 37.0598 29.532 37.8195 30.0382C38.8442 30.7204 39.5425 31.7612 39.7844 32.9703ZM19.7396 20.6699C21.756 22.2515 24.2148 23.1195 26.8173 23.1195C27.9188 23.1195 28.9958 22.9451 30.0435 22.6356C29.9467 23.0381 29.8899 23.456 29.8899 23.8877C29.8899 25.8011 30.8977 27.4803 32.4079 28.4336C31.5115 28.9044 30.731 29.5942 30.1518 30.4653L25.8318 36.9462H25.5137L23.7447 35.7671V33.8736C23.7447 29.5228 20.9433 25.8234 17.0533 24.4576C18.3876 23.6057 19.3701 22.2561 19.7396 20.6699ZM22.7438 36.9462H9.91723L12.287 35.1695C13.4016 34.3337 14.7819 33.8736 16.1746 33.8736C17.4574 33.8736 18.6995 34.25 19.7672 34.9613L22.7438 36.9462ZM39.1077 23.8877C39.1077 26.0054 37.3847 27.7284 35.2669 27.7284C33.1492 27.7284 31.4262 26.0054 31.4262 23.8877C31.4262 21.7699 33.1492 20.0469 35.2669 20.0469C37.3847 20.0469 39.1077 21.7699 39.1077 23.8877ZM16.8313 11.5973C16.8313 6.09116 21.3112 1.61131 26.8173 1.61131C32.3234 1.61131 36.8032 6.09116 36.8032 11.5973C36.8032 14.3035 35.7301 16.8238 33.7898 18.7219C32.6552 19.0468 31.6758 19.7358 30.9814 20.6537C29.6571 21.266 28.2583 21.5832 26.8173 21.5832C24.2025 21.5832 21.7529 20.5762 19.8778 18.7572C19.7165 16.8514 18.6857 15.1899 17.1801 14.1767C16.9527 13.3302 16.8313 12.4645 16.8313 11.5973ZM9.14984 19.2788C9.14984 16.737 11.2169 14.6699 13.7587 14.6699C16.3006 14.6699 18.3676 16.737 18.3676 19.2788C18.3676 21.8206 16.3006 23.8877 13.7587 23.8877C11.2169 23.8877 9.14984 21.8206 9.14984 19.2788ZM13.7587 25.424C18.4176 25.424 22.2084 29.2148 22.2084 33.8736V34.7432L20.6191 33.6831C19.2986 32.8028 17.7616 32.3373 16.1746 32.3373C14.4524 32.3373 12.744 32.9065 11.366 33.9397L7.35775 36.9462H6.84539C6.28311 36.9462 5.76307 37.1091 5.30909 37.3733V33.8736C5.30909 29.2148 9.09991 25.424 13.7587 25.424ZM5.30909 40.0188C5.30909 39.1715 5.99813 38.4825 6.84539 38.4825H24.9415C24.4414 38.9711 24.1288 39.6501 24.1288 40.4029C24.1288 40.8169 24.2309 41.2048 24.3984 41.5551H6.84155C5.99659 41.5528 5.30909 40.8645 5.30909 40.0188ZM46.5779 32.3465L40.9006 41.9983C39.3888 44.5678 36.5981 46.164 33.6177 46.164H3.77279C2.92553 46.164 2.2365 45.475 2.2365 44.6277C2.2365 43.7804 2.92553 43.0914 3.77279 43.0914H6.84155H6.84539H23.7447H26.8173H33.6177H33.6945V43.086C35.5627 43.0591 37.3041 42.0529 38.2535 40.4405L43.9294 30.791C44.3426 30.0874 45.3251 29.8308 46.0333 30.2456C46.7615 30.6735 47.0058 31.6168 46.5779 32.3465Z" fill="white"/>
</svg>
