<svg width="25" height="26" viewBox="0 0 25 26" fill="none" xmlns="http://www.w3.org/2000/svg">
<path fill-rule="evenodd" clip-rule="evenodd" d="M12.6736 4.23973C7.87321 4.23973 3.96794 8.145 3.96794 12.9454C3.96794 17.7459 7.87321 21.6511 12.6736 21.6511C17.4741 21.6511 21.3793 17.7459 21.3793 12.9454C21.3793 8.145 17.4741 4.23973 12.6736 4.23973M12.6736 23.1874C7.0262 23.1874 2.43164 18.5929 2.43164 12.9454C2.43164 7.29799 7.0262 2.70343 12.6736 2.70343C18.3211 2.70343 22.9156 7.29799 22.9156 12.9454C22.9156 18.5929 18.3211 23.1874 12.6736 23.1874" fill="#011632"/>
<path fill-rule="evenodd" clip-rule="evenodd" d="M11.1972 17.2686C11.0006 17.2686 10.8029 17.1938 10.6533 17.0422C10.3543 16.7411 10.3553 16.2557 10.6554 15.9566L13.6788 12.9454L10.6554 9.93533C10.3553 9.63626 10.3543 9.14977 10.6533 8.84865C10.9524 8.54651 11.4379 8.54856 11.739 8.8466L15.3094 12.4016C15.4538 12.546 15.5347 12.7416 15.5347 12.9454C15.5347 13.1503 15.4538 13.3459 15.3094 13.4903L11.739 17.0443C11.5895 17.1938 11.3928 17.2686 11.1972 17.2686" fill="#011632"/>
</svg>
