<svg width="33" height="43" viewBox="0 0 33 43" fill="none" xmlns="http://www.w3.org/2000/svg">
<path d="M15.8584 0.354004C16.097 0.0815042 16.5622 0.081504 16.8008 0.354004C21.1455 5.30997 25.7894 7.67271 31.418 7.79736C31.7579 7.80488 32.0303 8.08328 32.0303 8.42334L32.0059 26.0942V26.1011L32.0029 26.1089C29.6796 33.8083 24.6314 39.2278 16.5762 42.6753C16.4984 42.7089 16.4139 42.7261 16.3301 42.7261C16.2462 42.7261 16.1623 42.7088 16.084 42.6753C8.02847 39.2272 2.97921 33.8076 0.65625 26.1079L0.654297 26.1011V26.0942L0.629883 8.42236C0.630043 8.08218 0.902008 7.80487 1.24219 7.79736C6.87058 7.67259 11.5138 5.30958 15.8584 0.354004ZM16.3301 1.70264C12.0819 6.34219 7.3432 8.74548 1.88184 9.0249V25.8335C4.07907 33.0313 8.80533 38.1302 16.3301 41.4165C23.8552 38.1302 28.5814 33.0311 30.7783 25.8335V9.0249C25.3166 8.74524 20.5784 6.34199 16.3301 1.70264Z" fill="white" stroke="white" stroke-width="0.1"/>
</svg>
