<svg width="46" height="49" viewBox="0 0 46 49" fill="none" xmlns="http://www.w3.org/2000/svg">
<path d="M40.4105 4.19072C39.2275 3.13375 37.8779 2.27342 36.4061 1.67887C34.8982 1.06973 33.2866 0.745571 31.6643 0.667219C31.3755 0.653393 31.0859 0.647247 30.7971 0.647247C29.283 0.651088 27.7283 1.04438 26.2988 1.78565C24.0435 2.95554 21.3527 2.95477 19.0981 1.78565C17.6686 1.04438 16.1131 0.651088 14.5999 0.647247C12.9706 0.647247 11.3421 0.870011 9.79277 1.38467C8.2872 1.88474 6.87841 2.65366 5.63708 3.64073C5.41585 3.81663 5.19847 4.00022 4.98722 4.18995C1.8524 6.99908 0.179374 11.1978 0.396761 15.7122C0.606465 19.798 1.95611 25.2603 7.05893 28.495C7.02974 29.6311 7.00669 30.8002 7.08658 31.9824C7.14112 32.7014 7.20334 33.5164 7.33085 34.326C8.02218 38.7982 9.38642 43.7981 14.2611 46.9713C15.431 47.7325 17.3229 48.8356 18.6019 47.6357C19.4945 46.7977 19.718 45.2867 19.781 44.123C19.7833 44.0685 20.0791 39.0601 22.7338 34.1102C23.8061 35.8792 25.4838 39.3973 26.0775 44.7882C26.2442 46.3015 26.8964 48.1888 28.7307 48.1888C29.6855 48.1888 30.5505 47.6603 30.8946 47.4506C33.7813 45.6893 35.7954 43.2942 37.0521 40.1302C38.5523 36.3678 38.6998 32.7083 38.404 28.4597C43.4761 25.2065 44.7997 19.7711 44.9902 15.7038C45.2191 11.1909 43.5491 6.99447 40.4105 4.19072ZM28.5771 23.9591C27.2682 23.038 25.4454 22.0118 23.3537 21.2475C22.8959 21.08 22.4864 20.9633 22.0371 21.2475C19.9508 22.0095 18.1318 23.0319 16.8244 23.9514C16.597 20.951 15.7183 17.9237 14.9025 15.7268L20.3533 17.1417C22.0448 17.5819 23.8307 17.5711 25.516 17.111L30.4691 15.7183C29.6725 17.9391 28.8014 20.964 28.5771 23.9591ZM23.5065 31.2127C23.2661 30.9462 22.9189 30.8071 22.5587 30.8355C22.2015 30.864 21.8773 31.0575 21.683 31.3594C17.8775 37.2527 17.4958 43.7282 17.482 43.9993C17.4812 44.0078 17.4796 44.0155 17.4796 44.0239C14.467 36.7902 16.3405 28.548 16.7384 26.9979C17.1762 26.4701 19.5398 24.6412 22.6954 23.4605C25.8986 24.6588 28.2883 26.5278 28.6731 27.0224C29.1302 28.5273 31.4277 36.9347 28.3313 44.2474C27.2997 35.522 23.6633 31.3848 23.5065 31.2127ZM15.3511 44.9211C11.3752 42.2318 10.2122 37.8856 9.60688 33.9688C9.49319 33.2483 9.43481 32.4817 9.38412 31.8149C9.30576 30.6665 9.33572 29.5228 9.36722 28.3099C9.38411 27.6231 9.3073 27.1584 8.67588 26.7912C4.07543 24.1188 2.88326 19.2303 2.6966 15.5947C2.51301 11.78 3.90721 8.24732 6.52352 5.90293C8.10054 4.48953 10.0347 3.54625 12.1172 3.16371C14.139 2.79269 16.1838 2.86797 18.0358 3.82816C20.954 5.34141 24.4391 5.34218 27.3581 3.82816C28.4627 3.25512 29.6533 2.95093 30.8017 2.94862C32.4156 2.94862 34.0279 3.20826 35.5289 3.81203C36.7564 4.30595 37.8879 5.02109 38.8726 5.90447C41.4897 8.24271 42.8816 11.7708 42.6896 15.5878C42.519 19.2472 41.3315 24.1665 36.6481 26.8435C36.3032 27.0409 36.0243 27.521 36.0627 27.9427C36.3984 32.1744 36.3308 35.7202 34.9128 39.276C33.9772 41.6319 32.5477 43.4831 30.5597 44.9096C32.8165 39.4073 32.6637 33.0033 31.155 27.3205C30.224 23.8146 31.4438 19.8272 32.6368 16.4957C32.9233 15.6961 32.7428 14.8127 32.1659 14.1874C31.5829 13.5591 30.7072 13.3079 29.8845 13.5322L24.9084 14.8864C23.6095 15.2398 22.2345 15.2482 20.9302 14.9103L15.4794 13.4953C14.6567 13.281 13.7887 13.5391 13.2149 14.1675C12.6449 14.792 12.4682 15.6723 12.7532 16.4658C13.8916 19.6375 15.1207 23.1871 14.4508 26.5954C14.0015 28.8798 13.5882 31.119 13.4945 33.4565C13.42 35.3185 13.496 37.1889 13.7595 39.034C13.973 40.5273 14.3141 42.019 14.7957 43.4493C14.7957 43.4493 15.1368 44.6569 15.3511 44.9211Z" fill="white" stroke="#25B4F8" stroke-width="0.7"/>
</svg>
