<svg width="66" height="61" viewBox="0 0 66 61" fill="none" xmlns="http://www.w3.org/2000/svg">
<path d="M1.0645 60.9973H39.3865C39.9741 60.9973 40.451 60.4725 40.451 59.826V51.6269C40.451 46.2799 37.1872 41.5186 32.5141 40.0498L25.548 37.8595V35.9866C28.1347 34.3339 30.0402 31.5263 30.6555 28.201H30.8705C33.2188 28.201 35.1285 26.0997 35.1285 23.5158C35.1285 22.3386 34.7187 21.2739 34.064 20.4493V10.6303C34.064 7.76886 32.1873 5.37942 29.7166 4.87225C29.2567 2.15484 27.0851 0.0898438 24.4835 0.0898438H17.032C11.1623 0.0898438 6.387 5.34428 6.387 11.8028V20.4493C5.73233 21.2739 5.3225 22.3386 5.3225 23.5158C5.3225 26.0997 7.23221 28.201 9.5805 28.201H9.79553C10.4108 31.5263 12.3163 34.3339 14.903 35.9866V37.8595L7.93691 40.0498C3.26376 41.5186 0 46.2799 0 51.6269V59.826C0 60.4725 0.476896 60.9973 1.0645 60.9973ZM15.8621 39.9936L18.4286 41.4062L15.9675 44.1142L13.0316 40.8838L15.8621 39.9936ZM24.5889 39.9936L27.4183 40.8838L24.4835 44.1142L22.0224 41.4062L24.5889 39.9936ZM20.2255 42.7414L22.479 45.2211L21.6966 46.9417H18.7544L17.972 45.2211L20.2255 42.7414ZM19.0599 49.2843H21.3911L22.2417 58.6547H18.2072L19.0599 49.2843ZM38.322 51.6269V58.6547H34.064V52.7982H31.935V58.6547H24.3813L23.4445 48.3344L24.1131 46.8632C24.2323 46.9112 24.3579 46.9417 24.4835 46.9417C24.756 46.9417 25.0285 46.8269 25.2361 46.5985L29.7602 41.6205L31.9286 42.3022C35.6937 43.4852 38.322 47.32 38.322 51.6269ZM30.8705 25.8584V21.1732C32.0446 21.1732 32.9995 22.2238 32.9995 23.5158C32.9995 24.8077 32.0446 25.8584 30.8705 25.8584ZM17.032 2.43244H24.4835C26.2442 2.43244 27.677 4.009 27.677 5.94633C27.677 6.59288 28.1539 7.11762 28.7415 7.11762C30.5011 7.11762 31.9339 8.69419 31.9339 10.6315V18.9981C31.5922 18.8985 31.2399 18.8306 30.8705 18.8306C30.8705 18.5202 30.7587 18.2215 30.5586 18.0025L25.2361 12.146C24.9838 11.8684 24.6208 11.7489 24.2695 11.8274C23.9193 11.9059 23.6276 12.1741 23.4946 12.5396C22.3641 15.6493 19.6666 17.6593 16.6222 17.6593H10.645C10.0574 17.6593 9.5805 18.184 9.5805 18.8306C9.21112 18.8306 8.85877 18.8985 8.516 18.9969V11.8028C8.516 6.63622 12.3365 2.43244 17.032 2.43244ZM7.4515 23.5158C7.4515 22.2238 8.40635 21.1732 9.5805 21.1732V25.8584C8.40635 25.8584 7.4515 24.8077 7.4515 23.5158ZM11.7095 25.8584V20.0019H16.6222C20.0126 20.0019 23.0698 18.0657 24.7752 14.9513L28.7415 19.3155V25.8584C28.7415 31.025 24.921 35.2287 20.2255 35.2287C15.53 35.2287 11.7095 31.025 11.7095 25.8584ZM20.2255 37.5713C21.3379 37.5713 22.4099 37.3816 23.419 37.0314V38.0188L20.2255 39.7757L17.032 38.0188V37.0314C18.0411 37.3816 19.1131 37.5713 20.2255 37.5713ZM2.129 51.6269C2.129 47.32 4.75725 43.4852 8.52132 42.3022L10.6897 41.6205L15.2138 46.5985C15.4225 46.8269 15.695 46.9417 15.9675 46.9417C16.0931 46.9417 16.2187 46.9112 16.3379 46.862L17.0064 48.3332L16.0676 58.6547H8.516V52.7982H6.387V58.6547H2.129V51.6269Z" fill="black"/>
<path d="M62.807 0.0898438H55.3555V2.43418H62.807V0.0898438Z" fill="black"/>
<path d="M66.0005 4.77344H55.3555V7.11778H66.0005V4.77344Z" fill="black"/>
<path d="M60.678 9.45996H55.3555V11.8043H60.678V9.45996Z" fill="black"/>
<path d="M62.807 16.4883H55.3555V18.8326H62.807V16.4883Z" fill="black"/>
<path d="M66.0005 21.1729H55.3555V23.5172H66.0005V21.1729Z" fill="black"/>
<path d="M60.678 25.8564H55.3555V28.2008H60.678V25.8564Z" fill="black"/>
<path d="M62.807 32.8848H55.3555V35.2291H62.807V32.8848Z" fill="black"/>
<path d="M66.0005 37.5684H55.3555V39.9127H66.0005V37.5684Z" fill="black"/>
<path d="M60.678 42.2559H55.3555V44.6002H60.678V42.2559Z" fill="black"/>
<path d="M62.807 49.2822H55.3555V51.6266H62.807V49.2822Z" fill="black"/>
<path d="M66.0005 53.9697H55.3555V56.3141H66.0005V53.9697Z" fill="black"/>
<path d="M60.678 58.6543H55.3555V60.9986H60.678V58.6543Z" fill="black"/>
<path d="M47.9026 61C50.8374 61 53.2251 58.3728 53.2251 55.1435C53.2251 54.1959 53.0005 53.3139 52.6364 52.5221L53.9074 51.3567L52.5449 49.5576L51.3143 50.6867C50.3871 49.8258 49.2066 49.287 47.9026 49.287C44.9678 49.287 42.5801 51.9142 42.5801 55.1435C42.5801 58.3728 44.9678 61 47.9026 61ZM47.9026 51.6296C48.5487 51.6296 49.1491 51.8451 49.6516 52.2094L46.1568 55.4152L47.5194 57.2144L50.9321 54.0847C51.029 54.4208 51.0961 54.7722 51.0961 55.1435C51.0961 57.0808 49.6633 58.6574 47.9026 58.6574C46.1419 58.6574 44.7091 57.0808 44.7091 55.1435C44.7091 53.2062 46.1419 51.6296 47.9026 51.6296ZM47.9026 44.603C50.8374 44.603 53.2251 41.9758 53.2251 38.7465C53.2251 37.799 53.0005 36.917 52.6364 36.1252L53.9074 34.9597L52.5449 33.1606L51.3143 34.2897C50.3882 33.43 49.2077 32.8912 47.9036 32.8912C44.9688 32.8912 42.5811 35.5184 42.5811 38.7477C42.5811 41.977 44.9678 44.603 47.9026 44.603ZM47.9026 35.2326C48.5487 35.2326 49.1491 35.4482 49.6516 35.8124L46.1568 39.0183L47.5194 40.8174L50.9321 37.6877C51.029 38.025 51.0961 38.3752 51.0961 38.7465C51.0961 40.6839 49.6633 42.2604 47.9026 42.2604C46.1419 42.2604 44.7091 40.6839 44.7091 38.7465C44.7091 36.8092 46.1419 35.2326 47.9026 35.2326ZM47.9026 28.2049C50.8374 28.2049 53.2251 25.5776 53.2251 22.3484C53.2251 21.4008 53.0005 20.5188 52.6364 19.727L53.9074 18.5616L52.5449 16.7625L51.3143 17.8916C50.3882 17.0319 49.2077 16.4931 47.9036 16.4931C44.9688 16.4931 42.5811 19.1203 42.5811 22.3496C42.5811 25.5788 44.9678 28.2049 47.9026 28.2049ZM47.9026 18.8345C48.5487 18.8345 49.1491 19.05 49.6516 19.4143L46.1568 22.6201L47.5194 24.4192L50.9321 21.2895C51.029 21.6269 51.0961 21.9771 51.0961 22.3484C51.0961 24.2857 49.6633 25.8623 47.9026 25.8623C46.1419 25.8623 44.7091 24.2857 44.7091 22.3484C44.7091 20.4111 46.1419 18.8345 47.9026 18.8345ZM52.5438 0.364319L51.3132 1.49345C50.3871 0.632546 49.2066 0.09375 47.9026 0.09375C44.9678 0.09375 42.5801 2.72097 42.5801 5.95023C42.5801 9.1795 44.9678 11.8067 47.9026 11.8067C50.8374 11.8067 53.2251 9.1795 53.2251 5.95023C53.2251 5.00265 53.0005 4.12067 52.6364 3.32887L53.9074 2.16343L52.5438 0.364319ZM51.0961 5.95023C51.0961 7.88756 49.6633 9.46412 47.9026 9.46412C46.1419 9.46412 44.7091 7.88756 44.7091 5.95023C44.7091 4.01291 46.1419 2.43634 47.9026 2.43634C48.5487 2.43634 49.1491 2.65186 49.6516 3.01613L46.1568 6.22197L47.5194 8.02108L50.9321 4.89138C51.029 5.22871 51.0961 5.57893 51.0961 5.95023Z" fill="black"/>
</svg>
