<svg width="89" height="95" viewBox="0 0 89 95" fill="none" xmlns="http://www.w3.org/2000/svg">
<g filter="url(#filter0_dd_1623_151)">
<rect x="12" y="9" width="64" height="64" rx="32" fill="url(#paint0_linear_1623_151)"/>
<path d="M45.4062 28.5781L38.4922 35.4922C38.0234 35.9609 37.7305 36.6055 37.7305 37.25V49.7305C37.7305 51.1367 38.9023 52.25 40.25 52.25H51.5C52.4961 52.25 53.375 51.6641 53.7852 50.7266L57.8867 41.2344C58.9414 38.7734 57.125 36.0195 54.4297 36.0195H47.3398L48.5703 30.2773C48.6875 29.6328 48.5117 28.9883 48.043 28.5781C47.2812 27.8164 46.1094 27.8164 45.4062 28.5781ZM32.75 52.25C34.0977 52.25 35.2695 51.1367 35.2695 49.7305V39.7695C35.2695 38.3633 34.0977 37.25 32.75 37.25C31.4023 37.25 30.2305 38.3633 30.2305 39.7695V49.7305C30.2305 51.1367 31.4023 52.25 32.75 52.25Z" fill="white"/>
</g>
<g filter="url(#filter1_dd_1623_151)">
<rect x="60.14" y="1" width="23.86" height="24" rx="11.93" fill="#248BF3"/>
<path d="M72.6803 18V16.032H68.5763V14.664L72.5843 9.06H74.2883V14.664H75.5963V16.032H74.2883V18H72.6803ZM69.7763 15.252L69.4883 14.664H72.6803V10.344L73.1003 10.476L69.7763 15.252Z" fill="white"/>
</g>
<defs>
<filter id="filter0_dd_1623_151" x="0" y="7" width="88" height="88" filterUnits="userSpaceOnUse" color-interpolation-filters="sRGB">
<feFlood flood-opacity="0" result="BackgroundImageFix"/>
<feColorMatrix in="SourceAlpha" type="matrix" values="0 0 0 0 0 0 0 0 0 0 0 0 0 0 0 0 0 0 127 0" result="hardAlpha"/>
<feMorphology radius="4" operator="erode" in="SourceAlpha" result="effect1_dropShadow_1623_151"/>
<feOffset dy="4"/>
<feGaussianBlur stdDeviation="3"/>
<feComposite in2="hardAlpha" operator="out"/>
<feColorMatrix type="matrix" values="0 0 0 0 0 0 0 0 0 0 0 0 0 0 0 0 0 0 0.1 0"/>
<feBlend mode="normal" in2="BackgroundImageFix" result="effect1_dropShadow_1623_151"/>
<feColorMatrix in="SourceAlpha" type="matrix" values="0 0 0 0 0 0 0 0 0 0 0 0 0 0 0 0 0 0 127 0" result="hardAlpha"/>
<feMorphology radius="3" operator="erode" in="SourceAlpha" result="effect2_dropShadow_1623_151"/>
<feOffset dy="10"/>
<feGaussianBlur stdDeviation="7.5"/>
<feComposite in2="hardAlpha" operator="out"/>
<feColorMatrix type="matrix" values="0 0 0 0 0 0 0 0 0 0 0 0 0 0 0 0 0 0 0.1 0"/>
<feBlend mode="normal" in2="effect1_dropShadow_1623_151" result="effect2_dropShadow_1623_151"/>
<feBlend mode="normal" in="SourceGraphic" in2="effect2_dropShadow_1623_151" result="shape"/>
</filter>
<filter id="filter1_dd_1623_151" x="55.14" y="0" width="33.86" height="34" filterUnits="userSpaceOnUse" color-interpolation-filters="sRGB">
<feFlood flood-opacity="0" result="BackgroundImageFix"/>
<feColorMatrix in="SourceAlpha" type="matrix" values="0 0 0 0 0 0 0 0 0 0 0 0 0 0 0 0 0 0 127 0" result="hardAlpha"/>
<feMorphology radius="2" operator="erode" in="SourceAlpha" result="effect1_dropShadow_1623_151"/>
<feOffset dy="2"/>
<feGaussianBlur stdDeviation="2"/>
<feComposite in2="hardAlpha" operator="out"/>
<feColorMatrix type="matrix" values="0 0 0 0 0 0 0 0 0 0 0 0 0 0 0 0 0 0 0.1 0"/>
<feBlend mode="normal" in2="BackgroundImageFix" result="effect1_dropShadow_1623_151"/>
<feColorMatrix in="SourceAlpha" type="matrix" values="0 0 0 0 0 0 0 0 0 0 0 0 0 0 0 0 0 0 127 0" result="hardAlpha"/>
<feMorphology radius="1" operator="erode" in="SourceAlpha" result="effect2_dropShadow_1623_151"/>
<feOffset dy="4"/>
<feGaussianBlur stdDeviation="3"/>
<feComposite in2="hardAlpha" operator="out"/>
<feColorMatrix type="matrix" values="0 0 0 0 0 0 0 0 0 0 0 0 0 0 0 0 0 0 0.1 0"/>
<feBlend mode="normal" in2="effect1_dropShadow_1623_151" result="effect2_dropShadow_1623_151"/>
<feBlend mode="normal" in="SourceGraphic" in2="effect2_dropShadow_1623_151" result="shape"/>
</filter>
<linearGradient id="paint0_linear_1623_151" x1="12" y1="9" x2="76" y2="73" gradientUnits="userSpaceOnUse">
<stop stop-color="#60A5FA"/>
<stop offset="1" stop-color="#67E8F9"/>
</linearGradient>
</defs>
</svg>
