<svg width="89" height="95" viewBox="0 0 89 95" fill="none" xmlns="http://www.w3.org/2000/svg">
<g filter="url(#filter0_dd_1623_109)">
<rect x="12" y="9" width="64" height="64" rx="32" fill="url(#paint0_linear_1623_109)"/>
<path d="M46.5195 39.7695C46.5195 40.4141 45.9336 41 45.2305 41H33.9805C33.3359 41 32.75 40.4141 32.75 39.7695C32.75 39.0664 33.3359 38.4805 33.9805 38.4805H45.2305C45.9336 38.4805 46.5195 39.0664 46.5195 39.7695ZM32.75 34.7305C32.75 35.4336 33.3359 36.0195 33.9805 36.0195H45.2305C45.9336 36.0195 46.5195 35.4336 46.5195 34.7305C46.5195 34.0859 45.9336 33.5 45.2305 33.5H33.9805C33.3359 33.5 32.75 34.0859 32.75 34.7305ZM41.4805 44.75C41.4805 44.0469 40.9531 43.5195 40.25 43.5195H33.9805C33.3359 43.5195 32.75 44.0469 32.75 44.75C32.75 45.4531 33.3359 45.9805 33.9805 45.9805H40.25C40.9531 45.9805 41.4805 45.4531 41.4805 44.75ZM51.5 42.1133L52.3789 41.1758C52.9062 40.707 53.668 40.707 54.1367 41.1758L55.0742 42.1133C55.543 42.582 55.543 43.3438 55.0742 43.8711L54.1367 44.75L51.5 42.1133ZM50.6211 42.9922L44.1758 49.4375C44.0586 49.5547 44 49.6719 44 49.8477V51.6055C44 51.957 44.293 52.25 44.6445 52.25H46.4023C46.5781 52.25 46.6953 52.1914 46.8125 52.0742L53.2578 45.6289L50.6211 42.9922Z" fill="white"/>
</g>
<g filter="url(#filter1_dd_1623_109)">
<rect x="63.1599" y="1" width="20.84" height="24" rx="10.42" fill="#248BF3"/>
<path d="M73.2359 18V10.452H71.5079V9.06H74.8679V18H73.2359Z" fill="white"/>
</g>
<defs>
<filter id="filter0_dd_1623_109" x="0" y="7" width="88" height="88" filterUnits="userSpaceOnUse" color-interpolation-filters="sRGB">
<feFlood flood-opacity="0" result="BackgroundImageFix"/>
<feColorMatrix in="SourceAlpha" type="matrix" values="0 0 0 0 0 0 0 0 0 0 0 0 0 0 0 0 0 0 127 0" result="hardAlpha"/>
<feMorphology radius="4" operator="erode" in="SourceAlpha" result="effect1_dropShadow_1623_109"/>
<feOffset dy="4"/>
<feGaussianBlur stdDeviation="3"/>
<feComposite in2="hardAlpha" operator="out"/>
<feColorMatrix type="matrix" values="0 0 0 0 0 0 0 0 0 0 0 0 0 0 0 0 0 0 0.1 0"/>
<feBlend mode="normal" in2="BackgroundImageFix" result="effect1_dropShadow_1623_109"/>
<feColorMatrix in="SourceAlpha" type="matrix" values="0 0 0 0 0 0 0 0 0 0 0 0 0 0 0 0 0 0 127 0" result="hardAlpha"/>
<feMorphology radius="3" operator="erode" in="SourceAlpha" result="effect2_dropShadow_1623_109"/>
<feOffset dy="10"/>
<feGaussianBlur stdDeviation="7.5"/>
<feComposite in2="hardAlpha" operator="out"/>
<feColorMatrix type="matrix" values="0 0 0 0 0 0 0 0 0 0 0 0 0 0 0 0 0 0 0.1 0"/>
<feBlend mode="normal" in2="effect1_dropShadow_1623_109" result="effect2_dropShadow_1623_109"/>
<feBlend mode="normal" in="SourceGraphic" in2="effect2_dropShadow_1623_109" result="shape"/>
</filter>
<filter id="filter1_dd_1623_109" x="58.1599" y="0" width="30.8401" height="34" filterUnits="userSpaceOnUse" color-interpolation-filters="sRGB">
<feFlood flood-opacity="0" result="BackgroundImageFix"/>
<feColorMatrix in="SourceAlpha" type="matrix" values="0 0 0 0 0 0 0 0 0 0 0 0 0 0 0 0 0 0 127 0" result="hardAlpha"/>
<feMorphology radius="2" operator="erode" in="SourceAlpha" result="effect1_dropShadow_1623_109"/>
<feOffset dy="2"/>
<feGaussianBlur stdDeviation="2"/>
<feComposite in2="hardAlpha" operator="out"/>
<feColorMatrix type="matrix" values="0 0 0 0 0 0 0 0 0 0 0 0 0 0 0 0 0 0 0.1 0"/>
<feBlend mode="normal" in2="BackgroundImageFix" result="effect1_dropShadow_1623_109"/>
<feColorMatrix in="SourceAlpha" type="matrix" values="0 0 0 0 0 0 0 0 0 0 0 0 0 0 0 0 0 0 127 0" result="hardAlpha"/>
<feMorphology radius="1" operator="erode" in="SourceAlpha" result="effect2_dropShadow_1623_109"/>
<feOffset dy="4"/>
<feGaussianBlur stdDeviation="3"/>
<feComposite in2="hardAlpha" operator="out"/>
<feColorMatrix type="matrix" values="0 0 0 0 0 0 0 0 0 0 0 0 0 0 0 0 0 0 0.1 0"/>
<feBlend mode="normal" in2="effect1_dropShadow_1623_109" result="effect2_dropShadow_1623_109"/>
<feBlend mode="normal" in="SourceGraphic" in2="effect2_dropShadow_1623_109" result="shape"/>
</filter>
<linearGradient id="paint0_linear_1623_109" x1="12" y1="9" x2="76" y2="73" gradientUnits="userSpaceOnUse">
<stop stop-color="#60A5FA"/>
<stop offset="1" stop-color="#67E8F9"/>
</linearGradient>
</defs>
</svg>
