<svg width="40" height="45" viewBox="0 0 40 45" fill="none" xmlns="http://www.w3.org/2000/svg">
<path d="M27.662 0.220826C26.0773 0.220724 24.5092 0.542607 23.0527 1.16712C20.9066 2.08136 18.4804 2.08136 16.3344 1.16712C10.3977 -1.37814 3.52183 1.37113 0.976569 7.30779C0.352158 8.7643 0.0301725 10.3324 0.0302749 11.9172C0.0286363 16.7422 1.38468 21.4702 3.94326 25.561L4.17758 25.9371L7.71533 41.5038C8.18059 43.5539 10.2197 44.8387 12.2698 44.3734C13.778 44.0312 14.9291 42.8106 15.1824 41.2851L17.6403 26.5425C17.8305 25.4081 18.9043 24.6428 20.0388 24.833C20.9149 24.9799 21.6015 25.6664 21.7483 26.5425L24.2062 41.2842C24.5522 43.3583 26.5139 44.7592 28.588 44.4134C30.1122 44.1592 31.3315 43.009 31.6742 41.5022L35.2111 25.9354L35.4454 25.5594C38.0032 21.4689 39.3586 16.7414 39.3568 11.9172C39.3572 5.45791 34.1212 0.221338 27.662 0.220826ZM34.0542 24.6934L33.7462 25.185C33.6978 25.2629 33.6625 25.3481 33.6413 25.4373L30.0749 41.1368C29.8093 42.3047 28.6473 43.0362 27.4793 42.7707C26.6211 42.5756 25.966 41.8811 25.8211 41.013L23.3632 26.2713C23.0248 24.2447 21.1075 22.876 19.0808 23.2144C17.5136 23.4761 16.2855 24.7041 16.0239 26.2713L13.566 41.0139C13.3702 42.195 12.254 42.9939 11.0728 42.7981C10.2033 42.654 9.50765 41.998 9.31296 41.1384L5.74572 25.4381C5.72452 25.3489 5.68919 25.2637 5.64085 25.1858L5.3328 24.6942C2.93726 20.8631 1.66765 16.4355 1.66888 11.9172C1.67523 6.36549 6.17412 1.8666 11.7258 1.86025C13.0881 1.85882 14.4363 2.13533 15.688 2.673C18.2467 3.76472 21.1403 3.76472 23.6991 2.673C28.8049 0.485256 34.7175 2.85068 36.9052 7.95647C37.4415 9.20806 37.7181 10.5555 37.7182 11.9172C37.7192 16.4353 36.4496 20.8625 34.0542 24.6934Z" fill="white"/>
</svg>
